<?xml version="1.0" encoding="utf-8"?>
<!-- Generator: Adobe Illustrator 27.1.1, SVG Export Plug-In . SVG Version: 6.00 Build 0)  -->
<svg version="1.1" id="Layer_1" xmlns="http://www.w3.org/2000/svg" xmlns:xlink="http://www.w3.org/1999/xlink" x="0px" y="0px"
	 viewBox="0 0 70 99" style="enable-background:new 0 0 70 99;" xml:space="preserve">
<style type="text/css">
	.st0{fill:#FFFFFF;}
</style>
<g>
	<g>
		<g>
			<path id="aic__ep--line-path" class="st0" d="M5.91,6.79C5.87,6.72,5.86,6.7,5.88,6.57C5.93,5.76,6.44,4.35,8.4,5.13c0.04,0.01,0.18,0.1,0.23,0.15
				l2.5,4.49c7.96,14.14,16.5,27.95,25.6,41.38c4.54,6.72,9.24,13.34,14.06,19.86c2.39,3.27,4.9,6.48,7.25,9.87l0.71,1.04l0.43,0.64
				c0.29,0.43,0.57,0.86,0.84,1.3c0,0,0.59,1.06,1.29,2.54c0.7,1.48,1.49,3.4,1.95,5.04c0.43,1.38,0.6,2.3,0.62,2.86
				c0.03,0.55-0.07,0.73-0.27,0.64c-0.39-0.18-1.1-1.42-1.97-2.9c0.04,0.18-0.91-1.63-2.05-3.38c-1.12-1.76-2.4-3.48-2.4-3.48
				l-0.8-1.22l-0.41-0.61l-1.3-1.87c-2.29-3.21-4.74-6.39-7.11-9.63c-4.76-6.45-9.38-13.01-13.87-19.65
				C24.72,38.94,16.29,25.28,8.42,11.31L5.91,6.79z"/>
		</g>
	</g>
</g>
</svg>
